<?xml version="1.0" encoding="utf-8"?>
<!-- Generator: Adobe Illustrator 26.0.3, SVG Export Plug-In . SVG Version: 6.00 Build 0)  -->
<svg version="1.0" id="katman_1" xmlns="http://www.w3.org/2000/svg" xmlns:xlink="http://www.w3.org/1999/xlink" x="0px" y="0px"
	 viewBox="0 0 600 450" style="enable-background:new 0 0 600 450;" xml:space="preserve">
<style type="text/css">
	.st0{fill:#17AD85;}
</style>
<g id="Layer_2_00000080923409514872153000000010644158718125341070_">
	<g id="Layer_1-2_00000116945288347462581630000006512946495720787629_">
		<path class="st0" d="M120.6,382.5c-1.7-0.8-3.7-0.7-5.5-1.1c-7.8-1.9-15.1-4.8-20.4-11.1c-5.6-6.8-6.6-14.5-3.7-22.5
			c2.9-7.8,9.5-11.9,17.3-13.1c12.1-1.9,21.2,3.5,25.6,14.6c1.5,3.8,3,7.6,6,10.5c4.1,4,9.1,3.5,12.1-1.4c2-3.4,3.1-7.2,3-11.2
			c0-64.5,0-129,0-193.5c0.1-4.2-3.3-7.6-7.4-7.6c-0.1,0-0.1,0-0.2,0c-3.6-0.1-7.2,0-10.8,0c-5.6-0.1-10.4-4-11.5-9.5
			c-1-5.7,2.3-11.3,7.9-13.1c2-0.6,4.1-0.8,6.2-0.8h100.7c5.6,0,8.3-1.9,10.3-7.2c2-5.3,7.4-8.8,13.9-8.8c8.6,0,17.2,0,25.8,0h133
			c3.7,0,3.7,0,3.8,3.7c0,5.8,0,11.7,0,17.5c0,3.1,0,3.2-3.3,3.2h-41.5c-7,0-10.8,3.8-10.8,10.8c0,48.8,0,97.7,0,146.5
			c0,6.4-2.3,11.2-7.9,14.8c-15.8,10-31.4,20.3-47,30.5c-1,0.7-2.1,1.3-3.3,1.8c-6.4,2.5-12.3-1.3-12.8-8.2c-0.1-0.9,0-1.8,0-2.8
			c0-59.7,0-119.5,0-179.2c0-1.5-0.1-3-0.3-4.5c-0.9-6.5-4.3-9.6-10.9-9.6c-7.8-0.1-15.7,0-23.5,0c-5.3,0-7.7,1.7-9.5,6.7
			c-1.8,5-6.6,8.3-11.9,8.3c-2.4,0.1-4.8,0-7.2,0c-4.1-0.1-7.6,3.1-7.7,7.2c0,0.1,0,0.2,0,0.3c0,0.8,0,1.5,0,2.2
			c0,48.5,0,97,0,145.5c0.2,8.3-2.3,16.4-7,23.3c-3.6,5.1-8.4,8.7-13.5,12.1c-16.5,11.1-33.2,22.1-49.6,33.3
			c-8.3,5.7-17,10.1-26.9,11.8c-1.6,0.3-3.3-0.2-4.8,0.7L120.6,382.5z"/>
		<path class="st0" d="M436.6,196.2c0-28.7,0-57.5,0-86.3c0-2.4,0.6-3.1,3-3.1c21.9,0.1,43.8,0.1,65.8,0c2.3,0,2.7,0.7,2.7,2.8
			c-0.1,45.6-0.1,91.2-0.1,136.8c0,6.3-2.2,11.3-7.9,14.9c-15.9,10.1-31.6,20.5-47.5,30.7c-1.6,1.1-3.4,1.8-5.3,2
			c-6.1,0.5-9.7-2.7-10.6-9.6c-0.1-1-0.1-2-0.1-3C436.6,253,436.6,224.6,436.6,196.2z"/>
		<path class="st0" d="M472.1,67.5c9,0,18,0,27,0c6-0.1,11.1,4.5,11.5,10.5c0.5,6.7-3.5,11.7-10,12.6c-1.2,0.2-2.5,0.3-3.7,0.3
			c-16.7,0-33.3,0-49.9,0c-4.3,0-8.3-0.9-10.9-4.8s-3.1-8.1-1-12.3c1.8-4,5.8-6.5,10.1-6.3H472.1z"/>
	</g>
</g>
</svg>
