<?xml version="1.0" encoding="UTF-8" standalone="no"?>
<!-- Created with Inkscape (http://www.inkscape.org/) -->
<svg xmlns:rdf="http://www.w3.org/1999/02/22-rdf-syntax-ns#" xmlns="http://www.w3.org/2000/svg" height="500" width="500" version="1.0" xmlns:cc="http://creativecommons.org/ns#" xmlns:dc="http://purl.org/dc/elements/1.1/">
 <metadata>
  <rdf:RDF>
   <cc:Work rdf:about="">
    <dc:format>image/svg+xml</dc:format>
    <dc:type rdf:resource="http://purl.org/dc/dcmitype/StillImage"/>
    <dc:title/>
   </cc:Work>
  </rdf:RDF>
 </metadata>
 <path fill-rule="evenodd" fill="#20345a" d="m9.99995,490,480,0,0-480-480,0,0,480z"/>
 <path fill-rule="nonzero" fill="#415273" d="m243.388,344.37c-0.0982,25.1558-14.8502,55.6373-74.4566,55.6373-10.2882,0-43.1555-0.0226-48.4171-0.0226,4.77706-11.3692,54.1989-123.956,54.1989-123.956,41.3185,20.3794,68.7717,32.55,68.6748,68.3412m182.69,55.8774c-26.162-6.204-37.001-42.177-43.456-56.823-5.15-11.661-113.708-262.666-113.708-262.666h-41.4738c-7.40385-0.01459-24.0605,0.390074-35.5579,2.39617-56.2948,8.29106-98.2849,42.928-98.2849,100.828,0.692867,31.1794,13.7737,58.6172,59.7843,81.6542l-29.5252,65.2299c-4.46647,9.81951-15.6479,34.2111-21.8691,46.0035-11.9007,22.598-21.034,23.446-40.048,23.446l-0.06504,18.9146c19.3697-0.11675,104.94,0.0146,104.94,0.0146,15.7209-0.0146,39.508-1.90128,54.6449-6.08861,43.4369-11.8296,68.8036-41.1727,68.8036-79.3748,0-51.1753-35.2406-74.8584-82.5945-98.5454-8.62234-4.5628-11.9274-6.51715-11.9274-6.51715l20.7435-47.4431-12.0747-29.1958-29.48,66.0326s-39.8186-10.0172-39.8186-56.9893c0-43.2518,43.8948-59.3483,81.0907-59.3483,8.30909-0.0146,4.58062-0.0146,11.7548,0,1.50917,3.43769,133.168,317.338,133.168,317.338,1.88083-0.0809,73.3842,0,76.4596,0l-0.13008-18.7833c-8.86525,0.065-7.30563-0.0663-11.3766-0.0809"/>
 <path d="m404.741,251.929-11.6845-28.8708-12.8486,29.9853,24.9804,0-0.44731-1.1145zm-4.68283-38.9822,24.4999,61.6675c1.30609,3.24,4.35364,12.9043,13.568,12.2051v3.84634c-5.3664-0.10747-10.6266-0.0836-16.005-0.22555-5.37835,0.14197-10.7195,0.14197-16.0979,0.21361v-4.03607s10.1448,0.22555,10.1448-4.35715c0-2.25686-1.03532-4.15416-1.8596-6.18812l-7.58968-18.7687-28.0412,0.0133-7.24856,19.4122c-0.44731,1.49661-1.02337,3.48944-1.02337,4.97543-0.0226,5.03382,5.84822,4.92502,9.7081,4.92502v4.0374c-4.57796-0.10747-9.22495-0.0836-13.7923-0.22555-4.55274,0.14196-9.22495,0.14196-13.779,0.21361v-4.03607c3.97668-0.43917,6.04732,0.0133,8.90639-3.24133,1.47334-1.80443,4.74388-9.57008,5.80176-11.7792l25.0879-58.6504h7.71975zm-89.6772,38.7328,7.23661,0.0172c14.6033,0,24.618-0.67534,24.618-17.6356,0-16.2796-5.73142-17.6422-18.9105-17.6422h-12.9441v35.2606zm0,27.1844c0,6.09126-0.13008,7.64625,11.2014,7.64625v3.82246c-5.49648-0.11808-10.9784-0.11808-16.4483-0.22423-5.47259,0.10615-11.0142,0.10615-16.4868,0.22423l0.0226-3.82246c11.3089-0.0239,11.1788-1.55499,11.1788-7.65951v-54.9965c0-6.08993,0.13007-7.6635-11.2014-7.6635l0.0226-3.79459c5.45002,0.0663,10.9916,0.0663,16.4642,0.20299,8.02372-0.12471,16.0952-0.12471,24.1455-0.20299,14.8263-0.35824,23.1088,4.0228,23.1088,19.6297,0.0358,21.1237-12.4836,23.6035-31.2759,23.5809h-10.7315v23.2572zm-45.4332-12.9268,0,19.8726c-5.24826,2.73184-26.0276,4.523-31.0529,4.49912-28.3704,0-37.8436-14.389-37.8436-40.4284,0-26.9549,12.0376-39.8672,40.3137-39.8672,10.7209,0,18.1791,1.4462,28.5602,4.38237l0.0226,18.0628-6.30747,0.0133-0.35307-3.26388c-1.63528-12.5593-7.44766-15.0298-21.9567-15.0298-21.5824,0-28.1129,15.1545-28.1129,33.7878,0,20.4762,3.8121,37.7629,28.7248,37.7629,17.9442,0,19.8516-4.07323,21.3448-19.7691l6.66054-0.0212zm-112.081-42.099c0-7.29332-2.11974-7.64625-11.2385-7.64625v-3.79459c5.50577,0.0663,10.9677,0.0663,16.4854,0.20299,5.47259-0.13666,10.9784-0.13666,16.4629-0.20299v3.77336c-8.6489,0.0212-11.2146,0.24944-11.2146,7.68473v55.0097c0,7.31455,2.11842,7.64625,11.2146,7.64625v3.82246c-5.48454-0.11808-10.9903-0.11808-16.4629-0.22423-5.51771,0.10615-10.9797,0.10615-16.4854,0.22423v-3.82246c9.11877-0.0239,11.2385-0.3317,11.2385-7.65951v-55.0137zm-54.6555,21.6584c11.0726,3.81051,20.8856,8.65194,20.8856,21.6982,0,18.2831-15.8974,23.1391-31.994,23.1391-8.37944-0.0239-17.1571-1.36393-25.2286-4.85602v-20.2998l7.81267-0.0239c1.18929,11.0043-1.72951,21.3333,18.9224,21.3333,10.2842,0,19.979-4.50045,19.979-15.6932,0-12.4917-12.615-15.2938-22.6629-18.6798-10.9545-3.79858-20.7807-7.62237-20.7807-20.6554,0-14.9144,12.615-21.4448,26.6409-21.4448,7.94275,0,15.5205,1.22064,24.0048,4.25765v18.4264l-6.50658-0.0133c-1.17735-8.62542,0.93046-18.437-17.027-18.437-9.34176,0-16.9699,3.94452-16.9699,13.8436,0.03717,6.60871,3.2732,10.3264,9.48644,12.8034l13.4379,4.59863z" fill-rule="nonzero" fill="#FFF"/>
</svg>
